<svg version="1.1" xmlns="http://www.w3.org/2000/svg" xmlns:xlink="http://www.w3.org/1999/xlink" width="361" height="361" viewBox="0,0,361,361"><g transform="translate(-139.5,0.5)"><g data-paper-data="{&quot;isPaintingLayer&quot;:true}" fill-rule="nonzero" stroke-linejoin="miter" stroke-miterlimit="10" stroke-dasharray="" stroke-dashoffset="0" style="mix-blend-mode: normal"><path d="M183.13671,238.33516v-167.81749c0,0 52.96445,-4.25916 84.23331,-22.61158c31.26888,-18.35243 53.31491,-48.14682 53.31491,-48.14682c0,0 26.31512,33.97192 46.54906,46.95183c20.23394,12.97991 89.6293,29.4365 89.6293,29.4365v162.79005l-137.17554,121.30309z" fill="#0090ff" stroke="#0090ff" stroke-width="0" stroke-linecap="butt"/><path d="M201.59337,230.46838v-145.18651c0,0 45.82194,-3.68479 72.87405,-19.5623c27.05213,-15.87752 46.12514,-41.65399 46.12514,-41.65399c0,0 22.76639,29.39064 40.2717,40.62014c17.50529,11.22951 77.54236,25.46685 77.54236,25.46685v140.83703l-118.67677,104.94478z" fill="#4cb1ff" stroke="#0090ff" stroke-width="0" stroke-linecap="butt"/><path d="M301.36365,263.31848l12.60282,-84.01867l-38.46533,9.23169l28.66317,-91.85002l32.89884,4.49146l-15.97391,52.55489l43.40964,-4.94431z" fill="#ffffff" stroke="#ffffff" stroke-width="5" stroke-linecap="round"/><path d="M139.5,360.5v-361h361v361z" fill="none" stroke="#000000" stroke-width="0" stroke-linecap="butt"/></g></g></svg>